<svg width="171" height="67" viewBox="0 0 171 67" fill="none" xmlns="http://www.w3.org/2000/svg">
<path d="M41.9003 48.2831V60.2848L85.4602 65.0597V53.0708L41.9003 48.2831Z" fill="#BBE4F1"/>
<path d="M27.1361 30.7321V42.7209L41.9004 60.2847V48.283L27.1361 30.7321Z" fill="#9BD6EA"/>
<path d="M0.181824 17.5818V29.5707L27.1361 42.7209V30.7321L0.181824 17.5818Z" fill="#BBE4F1"/>
<path d="M126.804 52.5159V64.5047L147.109 42.7209V30.7321L126.804 52.5159Z" fill="#E6F5FA"/>
<path d="M147.109 30.7321V42.721L170.364 38.4236V26.4218L147.109 30.7321Z" fill="#BBE4F1"/>
<path d="M170.364 26.4218L147.109 30.7321L126.804 52.503L92.8424 54.1807L90.6261 54.2839L92.8424 45.5214L85.4603 53.0708L41.9004 48.283L27.1361 30.7321L0.181824 17.5819L34.8763 10.2776L39.0873 11.1035V6.80613L46.3331 0.818176H127.912L160.765 12.2779L170.364 26.4218Z" fill="white"/>
<path d="M69.2127 15.6074L54.8064 17.5819L49.2826 13.1038L39.0873 11.1035V6.80615L53.7153 11.7101L57.0228 15.6074H69.2127Z" fill="#9BD6EA"/>
<path d="M90.6261 54.2839L92.8425 45.5214L85.4603 53.0708V65.0596L92.8425 57.5102V54.1678L90.6261 54.2839Z" fill="#9BD6EA"/>
<path d="M90.6261 54.2839L92.8425 54.1678L90.6261 54.2839Z" fill="white"/>
<path d="M90.6261 54.2839L92.8425 57.5102L90.6261 66.2727L126.804 64.5047V52.5159L90.6261 54.2839Z" fill="#BBE4F1"/>
</svg>
