<svg xmlns="http://www.w3.org/2000/svg" viewBox="0 0 600 400"><defs><style>.cls-1{fill:#ffcce3;}.cls-2{fill:#471029;}.cls-3{fill:#f7adcf;}.cls-4{fill:#fff;}.cls-5{fill:#ed548b;}</style></defs><g id="圖層_2" data-name="圖層 2"><path class="cls-1" d="M547.59,286.54a16.23,16.23,0,0,0,.94-1.86,7.24,7.24,0,0,0,.62-3.49c0-.13,0-.26-.06-.38l-.09-.36c0-.12-.09-.24-.13-.35s-.12-.25-.17-.37a5.63,5.63,0,0,0-1-1.38,11.38,11.38,0,0,0-3.26-2.24,26,26,0,0,0-4.17-1.53c-.73-.2-1.48-.39-2.24-.57l-1.15-.25-1.72-.33-4.83-.87-2.42-.42c-.68,0,0-.42.22-.71l.92-1c.9-1,1.86-2,2.67-2.92a9.15,9.15,0,0,0,.58-.72l.54-.73.12-.19,0-.08.09-.15.19-.32a7.51,7.51,0,0,0,.94-2.47,3.54,3.54,0,0,0-.21-2.07,4.53,4.53,0,0,0-1.45-1.73,13.69,13.69,0,0,0-5.51-2.16,34.07,34.07,0,0,0-6.6-.53,67.56,67.56,0,0,0-13.63,1.68c-2.26.49-4.52,1.06-6.76,1.71s-4.47,1.36-6.62,2.14a118.48,118.48,0,0,0-12.78,5.64c-4.18,2.12-8.29,4.43-12.33,6.84-2,1.21-4,2.44-6,3.72l-1.69,1.1-.38.25-.18.12a.26.26,0,0,1-.2.08l-.88.07-1.1.07-.93.07-.94,0c-.62,0-1.25.05-1.87,0a54.65,54.65,0,0,1-7.45-.52,58.48,58.48,0,0,1-7.3-1.43,78.14,78.14,0,0,1-13.83-5.1c-2.21-1.06-4.37-2.19-6.5-3.38s-4.19-2.46-6.23-3.76a234.78,234.78,0,0,1-23.07-17.35c-14.67-12.29-28.51-25.37-43.53-36.78a165.33,165.33,0,0,0-23.59-15.25,171.68,171.68,0,0,0-26-10.75,153.45,153.45,0,0,0-27.4-6,209.62,209.62,0,0,0-28.17-1.36l-9.43.16c-.08.34-.15.69-.22,1-.31,1.53-.6,2.78-.88,3.79a18.54,18.54,0,0,1-.77,2.33c-.46,1.11-.84,1.37-1.14,1-.59-.71-.84-3.87-.94-7.67,0,.08,0-.08-.05-.42,0-.84,0-2.79-.05-5.1,0-1,0-2.14,0-3.25s0-2.31-.08-3.4-.06-2.11-.11-3l-.13-2.92V157.6c0-.53,0-1.07,0-1.6l-.05-2.87-.12-3.08c0-1-.11-2.05-.17-3.07-.25-4.1-.64-8.19-1.18-12.24s-1.28-8.08-2.19-12.05a103.05,103.05,0,0,0-8-22.9A78.7,78.7,0,0,0,201.9,80.13,71.37,71.37,0,0,0,182.68,66a80.33,80.33,0,0,0-22.83-7.34,89.55,89.55,0,0,0-12-1.14c-1,0-2-.06-3,0l-3,.06-3,.17c-1,.06-2,.19-3,.27a93,93,0,0,0-23.49,5.58,90.67,90.67,0,0,0-11,5l-2.62,1.5c-.87.52-1.71,1.06-2.56,1.59l-.64.4-.62.43-1.23.84c-.8.59-1.62,1.16-2.4,1.78a86.34,86.34,0,0,0-16.6,17.42,114.19,114.19,0,0,0-12,21.13,116.64,116.64,0,0,0-10,47.35,91.17,91.17,0,0,0,.94,12,75.65,75.65,0,0,0,2.68,11.69A59.61,59.61,0,0,0,67,205l.42.51c.76.89,1.55,1.75,2.36,2.59A51.49,51.49,0,0,0,75,212.85a.5.5,0,0,1,.23.38,4.65,4.65,0,0,1,0,3.09c-.42,1.05-1.46,2-3.85,2a2.18,2.18,0,0,1-.61-.12h0c0,.16,0,.32,0,.48.11,1.15.25,2.3.39,3.37s.25,2.09.38,2.95l.29,2.09.13.8.31,3.18.18,1.59,0,.39.13,1.14.27,1.94c.17,1.3.37,2.58.58,3.87s.45,2.57.68,3.85a123.87,123.87,0,0,0,9.34,29.61A93.81,93.81,0,0,0,101,298.8c.89.92,1.83,1.8,2.73,2.71s1.9,1.73,2.86,2.58c2,1.6,3.92,3.31,6,4.75l1.56,1.12.78.56.82.51,3.25,2.06c1.1.66,2.24,1.26,3.36,1.89.57.31,1.12.63,1.69.92l1.74.84,1.74.85.87.42c.29.14.59.25.89.38l3.56,1.5c.59.27,1.21.46,1.81.69l1.83.66,1.82.66,1.85.58,1.86.59c.62.19,1.23.39,1.86.55l3.76,1c.63.18,1.27.31,1.9.46l1.91.43,1.9.43,1.92.37a219.54,219.54,0,0,0,31.27,3.52c7.08.37,14.14.7,21.19.87q-2.56-2.15-5-4.44a123.09,123.09,0,0,1-8.54-9,112.33,112.33,0,0,1-7.12-9.18.6.6,0,0,1-.12-.47,4.29,4.29,0,0,1,.93-3c.79-.81,2.11-1.21,4.27-.62a1.94,1.94,0,0,1,.52.26,103.48,103.48,0,0,0,6.68,8.62,115.48,115.48,0,0,0,8.2,8.65,99.88,99.88,0,0,0,9.08,7.63l2.33,1.69.06,0c.8.53,1.59,1.07,2.42,1.56s1.66,1,2.5,1.44l1.29.66c.43.22.86.44,1.31.64,1.59.76,3.23,1.45,4.89,2.08,2,.76,4,1.43,6.06,2a90.11,90.11,0,0,0,23.37,3.27,108,108,0,0,0,23.63-2.39q3-.63,5.91-1.43l-1-.31c-2.75-.85-5.48-1.77-7.52-2.5L279.4,335l-.93-.37s-.82-.51-1.88-1.28c-.53-.4-1.12-.87-1.7-1.35a20.3,20.3,0,0,1-1.62-1.58,7.23,7.23,0,0,1-1-1.14,3.92,3.92,0,0,1-.49-.9.89.89,0,0,1,.19-1.08,2.07,2.07,0,0,1,1.25-.34,10.43,10.43,0,0,1,1.82.16c-.05-.06.31,0,.87.14l1,.24,1.16.26,1.15.26,1,.22,1,.21s.31.13.86.33,1.34.51,2.3.84c1.91.69,4.49,1.55,7.12,2.35s5.28,1.55,7.3,2.1c1.61.43,2.8.74,3.26.85l1-.37.35-.13.31-.13c.14-.07.31-.12.44-.2a2.62,2.62,0,0,0,1-.8,1.49,1.49,0,0,0,.2-1,5.61,5.61,0,0,0-.46-1.83,18.15,18.15,0,0,0-2.74-4.34,44.2,44.2,0,0,0-4.93-5.05c-1.1-1-2.25-1.91-3.42-2.82-1-.75-1.95-1.47-2.95-2.17-2.22-1.57-4.52-3-6.88-4.43a117.83,117.83,0,0,0-10.58-5.51l-.68-.31-.53-.23-.37-.17-.74-.32-1.48-.64c-1-.41-2-.82-3-1.21,0,0-2.28-1.1-5.41-2.49s-7.14-3-10.5-4.37a57.76,57.76,0,0,1-5.79-2.39c-1-.57-1.29-1-.91-1.23.75-.52,4-.52,7.83,0a65.48,65.48,0,0,1,8.83,1.78c4.63,1.14,9.26,2.7,9.26,2.7,1,.42,2.07.84,3.09,1.28.51.21,1,.44,1.53.66l.38.17.47.21.71.32c.94.43,1.87.88,2.8,1.32,3.71,1.82,7.35,3.8,10.88,6a93,93,0,0,1,9,6.29c1.38-.38,2.77-.72,4.17-1a57.47,57.47,0,0,1,8.45-1.16,56.52,56.52,0,0,1,8.55.32,74.92,74.92,0,0,1,8.27,1.54c2.7.68,5.33,1.47,7.93,2.33s5.14,1.81,7.66,2.77l7.47,2.91c1.23.47,2.47,1,3.68,1.39l1.82.67c.62.22,1.23.41,1.85.62a129.55,129.55,0,0,0,15,4,138.05,138.05,0,0,0,31,2.6c1.3-.05,2.6-.08,3.9-.17s2.6-.14,3.89-.25c2.58-.22,5.16-.52,7.71-.91a93.45,93.45,0,0,0,15-3.51,71.6,71.6,0,0,0,7.11-2.75,56.42,56.42,0,0,0,6.65-3.56,42.47,42.47,0,0,0,11-9.75,37.31,37.31,0,0,0,5.09-8.91c.05-.14.07-.2.29-.32a4.77,4.77,0,0,1,2.93-.93c1.13.1,2.32.79,3,3.1a2.4,2.4,0,0,1,.06.64,45.46,45.46,0,0,1-3.69,7.22c1.11,0,3.51,0,6-.08l4.8-.13,2.19-.09,1.5,0h4.09c1.6,0,3.21-.07,4.81-.14a126,126,0,0,0,19-2.2l1.17-.22,1.16-.27,2.32-.54c.77-.18,1.53-.41,2.3-.62s1.53-.4,2.28-.64l2.26-.74,1.13-.37c.38-.12.74-.27,1.11-.41,1.47-.57,3-1.1,4.39-1.74a47.44,47.44,0,0,0,15.24-10.36,34.8,34.8,0,0,0,2.94-3.49A19.16,19.16,0,0,0,547.59,286.54Z"/><path class="cls-2" d="M167.71,131.3a15.61,15.61,0,0,0-9.41-6.61,14.53,14.53,0,0,0-11.67,2.06,17.08,17.08,0,0,0-7.09,10.1,17.46,17.46,0,0,0,1.74,13.54,13.51,13.51,0,0,0,9,6.16,14,14,0,0,0,2.8.28c7.29,0,14.29-5.67,16.35-13.75A14.81,14.81,0,0,0,167.71,131.3Z"/><path class="cls-2" d="M80.6,124.86A13,13,0,0,0,71,128a15.39,15.39,0,0,0-5.41,10.42,16.55,16.55,0,0,0,3.75,12.42,10,10,0,0,0,7.5,3.43h0c7.26,0,13.81-6.27,14.93-14.29a13.63,13.63,0,0,0-2.56-10.51A12.36,12.36,0,0,0,80.6,124.86Z"/><path class="cls-2" d="M104,170.5l.33,0c3.18-.36,8.32-4.31,8.9-7.51a3,3,0,0,0-1.69-3.31c-3.8-1.92-10.67-2.46-13.49-.26h0a4.49,4.49,0,0,0-1.55,5.52C97.71,168,101.6,170.5,104,170.5Z"/><path class="cls-2" d="M117.63,177.08a1.38,1.38,0,0,0-1.4,0c-4.71,3-12-2.32-12.09-2.37a1.37,1.37,0,0,0-1.78.13c-3.53,3.52-5.78,2.56-5.84,2.54a1.32,1.32,0,0,0-1.29,0,1.36,1.36,0,0,0-.7,1.12c-.37,4.26,3,15,8.32,18a6,6,0,0,0,3,.81,6.38,6.38,0,0,0,3.83-1.39c8.48-6.32,8.7-17.19,8.7-17.65A1.36,1.36,0,0,0,117.63,177.08Z"/><path class="cls-2" d="M146.2,111.29a6,6,0,0,0,3.13,1.11h.43c2.61,0,4.69-1.57,4.83-3.71h0c.15-2.25-1.93-4.17-4.73-4.35a5.84,5.84,0,0,0-3.24.68,3.62,3.62,0,0,0-.42,6.26Z"/><path class="cls-2" d="M84.76,112.61a5.09,5.09,0,0,0,1.43.2,6.37,6.37,0,0,0,1.48-.18c2.57-.63,4.14-2.6,3.65-4.59a3.33,3.33,0,0,0-2.45-2.38,5.73,5.73,0,0,0-2.91,0A5.67,5.67,0,0,0,83.39,107a3.19,3.19,0,0,0,1.37,5.61Z"/><path class="cls-3" d="M293,204c1-4.85-4.57-10.13-12.48-11.77s-15.13,1-16.14,5.82,4.45,8.63,12.35,10.28S292,208.86,293,204Z"/><path class="cls-3" d="M320.2,207.81c-6.59-2-13-.22-14.23,4s3.08,7.87,9.67,9.87,12.95,1.53,14.22-2.65S326.8,209.8,320.2,207.81Z"/><path class="cls-3" d="M293.29,218.23c-5.81-1.76-11.42-.19-12.54,3.49s2.71,6.94,8.52,8.69,11.41,1.36,12.52-2.33S299.1,220,293.29,218.23Z"/><path class="cls-3" d="M426,283.15c-4.89-1.12-9.43.48-10.15,3.58s2.62,5.57,7.51,6.7,9.49.49,10.2-2.62S430.87,284.28,426,283.15Z"/><path class="cls-4" d="M194.21,317.26c-2.05-2.4-4-4.87-5.88-7.45a45.47,45.47,0,0,1-17.48-8.55c-15.95-12.55-18.33-36.21-30.94-51.61-13.23-16.16-46.57-21.57-58.16-5.49-3.71,5.14-3.55,11.81-2.68,18a115.14,115.14,0,0,0,4.54,11.29A93.81,93.81,0,0,0,101,298.8c.89.92,1.83,1.8,2.73,2.71s1.9,1.73,2.86,2.58c2,1.6,3.92,3.31,6,4.75l1.56,1.12.78.56.82.51,3.25,2.06c1.1.66,2.24,1.26,3.36,1.89.57.31,1.12.63,1.69.92l1.74.84,1.74.85.87.42c.29.14.59.25.89.38l3.56,1.5c.59.27,1.21.46,1.81.69l1.83.66,1.82.66,1.85.58,1.86.59c.62.19,1.23.39,1.86.55l3.76,1c.63.18,1.27.31,1.9.46l1.91.43,1.9.43,1.92.37a219.7,219.7,0,0,0,31.27,3.52c7.08.37,14.14.7,21.19.87q-2.56-2.15-5-4.44A123.09,123.09,0,0,1,194.21,317.26Z"/><path class="cls-4" d="M380,322.8c-11.37-2.68-22.12-7.27-32.68-12.17-21-9.75-41.85-19.61-65.68-17.49A100.72,100.72,0,0,0,265.88,296c2.35.7,4,1.27,4,1.27,1,.42,2.07.84,3.09,1.28.51.21,1,.44,1.53.66l.38.17.47.21.71.32c.94.43,1.87.88,2.8,1.32,3.71,1.82,7.35,3.8,10.88,6a93,93,0,0,1,9,6.29c1.38-.38,2.77-.72,4.17-1a57.47,57.47,0,0,1,8.45-1.16,56.52,56.52,0,0,1,8.55.32,74.92,74.92,0,0,1,8.27,1.54c2.7.68,5.33,1.47,7.93,2.33s5.14,1.81,7.66,2.77l7.47,2.91c1.23.47,2.47,1,3.68,1.39l1.82.67c.62.22,1.23.41,1.85.62a129.55,129.55,0,0,0,15,4,138.05,138.05,0,0,0,31,2.6c1.3-.05,2.6-.08,3.9-.17l1.48-.08C400.47,326.44,390,325.17,380,322.8Z"/><path class="cls-4" d="M148.31,144c3.12,1.59,7.13,0,8.95-3.56s.76-7.75-2.36-9.34-7.12,0-8.94,3.56S145.19,142.36,148.31,144Z"/><path class="cls-4" d="M81.88,137.38c.93-3.42-.84-6.43-3.68-6.95-3.34-.61-6.09,1.67-7,5.1s.79,6.9,3.65,7.29S81,140.8,81.88,137.38Z"/><path class="cls-5" d="M553.85,278.93c-.1-.29-.2-.57-.31-.84s-.24-.52-.37-.78-.28-.49-.43-.73-.31-.47-.48-.7a14.41,14.41,0,0,0-4.8-3.93,28.9,28.9,0,0,0-5.25-2.1q-1.32-.39-2.64-.69l-1.31-.3-1-.2h-.06l.21-.33.27-.46a12.64,12.64,0,0,0,1.54-4.17,9.07,9.07,0,0,0,.08-2.45,8.53,8.53,0,0,0-.66-2.47,9.53,9.53,0,0,0-3-3.73,15.1,15.1,0,0,0-3.77-2,24.06,24.06,0,0,0-3.85-1.07,39.53,39.53,0,0,0-7.61-.62,72.23,72.23,0,0,0-14.67,1.79c-2.38.52-4.75,1.12-7.08,1.79s-4.64,1.41-7,2.25A125.47,125.47,0,0,0,478.37,263c-4.31,2.18-8.51,4.54-12.64,7-2.06,1.23-4.11,2.49-6.14,3.8l-1.3.85h0l-.69.05-.85.06-.84,0c-.57,0-1.14.05-1.7,0a49.78,49.78,0,0,1-6.79-.48A53.75,53.75,0,0,1,440.7,273c-8.86-2.29-17.23-6.55-25.08-11.59a228,228,0,0,1-22.55-17c-14.52-12.16-28.41-25.29-43.73-36.94A170.63,170.63,0,0,0,325,191.82a177.67,177.67,0,0,0-26.76-11.09A158.56,158.56,0,0,0,270,174.54a212.87,212.87,0,0,0-28.84-1.4l-8.45.14c.3-1.87.56-3.72.77-5.38s.38-3.29.47-4.39.15-1.75.15-1.75c0-1.12,0-2.24,0-3.36v-1.68l-.09-4.07a173.72,173.72,0,0,0-2.64-25.88c-.81-4.29-1.8-8.54-3-12.75a104.57,104.57,0,0,0-4.42-12.4,94.74,94.74,0,0,0-6-11.77c-.59-.93-1.15-1.89-1.77-2.8l-1.89-2.74-2-2.66c-.68-.88-1.41-1.71-2.12-2.57a76.84,76.84,0,0,0-20.4-17,83.43,83.43,0,0,0-12-5.66c-1-.37-2.08-.78-3.14-1.11l-3.16-1-3.21-.86c-1.07-.27-2.15-.49-3.23-.74A97,97,0,0,0,138.57,51,97.43,97.43,0,0,0,89.21,68.19,89.8,89.8,0,0,0,70.44,86.81a118.67,118.67,0,0,0-13.36,22.57,129.29,129.29,0,0,0-8.37,24.8,117.07,117.07,0,0,0-3,26.08,89.36,89.36,0,0,0,3.82,26.16,68.63,68.63,0,0,0,5.14,12.36,61.61,61.61,0,0,0,7.57,11.14c1.11,1.31,2.29,2.58,3.52,3.79-.25,2.63-.41,5.34-.48,7.68-.06,1.77-.08,3.32-.07,4.42s0,1.76,0,1.76l.32,3.36c0,.56.12,1.12.19,1.68l.09.84,0,.42.18,1.48.28,2.05a141.18,141.18,0,0,0,8.24,32.21,104.43,104.43,0,0,0,17,28.86,93,93,0,0,0,11.94,11.87c1.1.88,2.16,1.8,3.28,2.65l3.42,2.46.86.62.89.57,1.78,1.12,1.78,1.13c.59.38,1.22.69,1.83,1,1.23.67,2.45,1.37,3.69,2l3.78,1.84.95.45,1,.41,1.93.82,1.93.81c.65.27,1.31.49,2,.73a123.82,123.82,0,0,0,16,4.79,162.76,162.76,0,0,0,16.32,2.94c5.46.76,10.94,1.22,16.41,1.58l4.1.25,4.07.21c2.71.13,5.43.27,8.15.37,5.44.23,10.9.4,16.37.44h3l.53.32,1.36.84,1.4.77.7.39.7.36,1.42.73a78.45,78.45,0,0,0,11.79,4.52,96.33,96.33,0,0,0,24.68,3.72,112.72,112.72,0,0,0,24.74-2.18,123.91,123.91,0,0,0,12-3l3-.94,2.92-1c1-.33,1.94-.72,2.9-1.09l.73-.27.36-.14.47-.21.47-.21.47-.26a7.42,7.42,0,0,0,.95-.59,10.14,10.14,0,0,0,.92-.73,10.48,10.48,0,0,0,.86-.9,8.32,8.32,0,0,0,1.3-2.26,9,9,0,0,0,.38-4.75,14.37,14.37,0,0,0-1.25-3.75,23.64,23.64,0,0,0-1.8-3,38.48,38.48,0,0,0-4-4.85c1.44-.29,2.88-.52,4.32-.71a45.91,45.91,0,0,1,7.51-.15,58,58,0,0,1,7.57,1.1,108.81,108.81,0,0,1,15.06,4.6c2.5.93,5,1.93,7.53,2.91l3.82,1.48c1.28.49,2.6,1,3.91,1.44a131.92,131.92,0,0,0,16.06,4.49,146.09,146.09,0,0,0,33.09,3.11c1.39-.05,2.77-.08,4.16-.15s2.76-.14,4.15-.25q4.17-.31,8.31-.91a102.23,102.23,0,0,0,16.39-3.73,69.84,69.84,0,0,0,15.53-7,49.2,49.2,0,0,0,13-11.49l.52-.69.82.16c1.35.29,2.84.58,4.33.81s3,.46,4.29.62c2.63.34,4.59.49,4.59.49,1.08,0,2.15.06,3.24,0h2.68a144.09,144.09,0,0,0,20.91-1.66,98.46,98.46,0,0,0,20.42-5.41A54.94,54.94,0,0,0,545.49,297a39.24,39.24,0,0,0,3.73-4c.6-.7,1.13-1.45,1.68-2.19a22.52,22.52,0,0,0,1.52-2.46,14.65,14.65,0,0,0,1.83-5.92A9.77,9.77,0,0,0,553.85,278.93Zm-5.32,5.75a16.23,16.23,0,0,1-.94,1.86,19.16,19.16,0,0,1-1.22,1.81,34.8,34.8,0,0,1-2.94,3.49,47.44,47.44,0,0,1-15.24,10.36c-1.42.64-2.92,1.17-4.39,1.74-.37.14-.73.29-1.11.41l-1.13.37-2.26.74c-.75.24-1.52.43-2.28.64s-1.53.44-2.3.62l-2.32.54-1.16.27-1.17.22a126,126,0,0,1-19,2.2c-1.6.07-3.21.1-4.81.14h-4.09l-1.5,0-2.19.09-4.8.13c-2.44,0-4.84.05-6,.08a45.46,45.46,0,0,0,3.69-7.22,2.4,2.4,0,0,0-.06-.64c-.72-2.31-1.91-3-3-3.1a4.77,4.77,0,0,0-2.93.93c-.22.12-.24.18-.29.32a37.31,37.31,0,0,1-5.09,8.91,42.47,42.47,0,0,1-11,9.75,56.42,56.42,0,0,1-6.65,3.56,71.6,71.6,0,0,1-7.11,2.75,93.45,93.45,0,0,1-15,3.51c-2.55.39-5.13.69-7.71.91-1.29.11-2.59.18-3.89.25s-2.6.12-3.9.17a138.05,138.05,0,0,1-31-2.6,129.55,129.55,0,0,1-15-4c-.62-.21-1.23-.4-1.85-.62L355,322.6c-1.21-.43-2.45-.92-3.68-1.39l-7.47-2.91c-2.52-1-5.07-1.9-7.66-2.77s-5.23-1.65-7.93-2.33a74.92,74.92,0,0,0-8.27-1.54,56.52,56.52,0,0,0-8.55-.32,57.47,57.47,0,0,0-8.45,1.16c-1.4.31-2.79.65-4.17,1a93,93,0,0,0-9-6.29c-3.53-2.19-7.17-4.17-10.88-6-.93-.44-1.86-.89-2.8-1.32l-.71-.32-.47-.21-.38-.17c-.51-.22-1-.45-1.53-.66-1-.44-2.06-.86-3.09-1.28,0,0-4.63-1.56-9.26-2.7a65.48,65.48,0,0,0-8.83-1.78c-3.85-.55-7.08-.55-7.83,0-.38.26-.14.66.91,1.23a57.76,57.76,0,0,0,5.79,2.39c3.36,1.34,7.37,3,10.5,4.37s5.41,2.49,5.41,2.49c1,.39,2,.8,3,1.21l1.48.64.74.32.37.17.53.23.68.31A117.83,117.83,0,0,1,284,311.65c2.36,1.39,4.66,2.86,6.88,4.43,1,.7,2,1.42,2.95,2.17,1.17.91,2.32,1.85,3.42,2.82a44.2,44.2,0,0,1,4.93,5.05,18.15,18.15,0,0,1,2.74,4.34,5.61,5.61,0,0,1,.46,1.83,1.49,1.49,0,0,1-.2,1,2.62,2.62,0,0,1-1,.8c-.13.08-.3.13-.44.2l-.31.13-.35.13-1,.37c-.46-.11-1.65-.42-3.26-.85-2-.55-4.68-1.3-7.3-2.1s-5.21-1.66-7.12-2.35c-1-.33-1.74-.64-2.3-.84s-.86-.33-.86-.33l-1-.21-1-.22-1.15-.26-1.16-.26-1-.24c-.56-.14-.92-.2-.87-.14a10.43,10.43,0,0,0-1.82-.16,2.07,2.07,0,0,0-1.25.34.89.89,0,0,0-.19,1.08,3.92,3.92,0,0,0,.49.9,7.23,7.23,0,0,0,1,1.14,20.3,20.3,0,0,0,1.62,1.58c.58.48,1.17,1,1.7,1.35,1.06.77,1.88,1.28,1.88,1.28l.93.37,2.46.91c2,.73,4.77,1.65,7.52,2.5l1,.31q-2.94.79-5.91,1.43a108,108,0,0,1-23.63,2.39,90.11,90.11,0,0,1-23.37-3.27c-2-.57-4.08-1.24-6.06-2-1.66-.63-3.3-1.32-4.89-2.08-.45-.2-.88-.42-1.31-.64l-1.29-.66c-.84-.48-1.69-.93-2.5-1.44s-1.62-1-2.42-1.56l-.06,0-2.33-1.69a99.88,99.88,0,0,1-9.08-7.63,115.48,115.48,0,0,1-8.2-8.65,103.48,103.48,0,0,1-6.68-8.62,1.94,1.94,0,0,0-.52-.26c-2.16-.59-3.48-.19-4.27.62a4.29,4.29,0,0,0-.93,3,.6.6,0,0,0,.12.47,112.33,112.33,0,0,0,7.12,9.18,123.09,123.09,0,0,0,8.54,9q2.42,2.3,5,4.44c-7-.17-14.11-.5-21.19-.87a219.54,219.54,0,0,1-31.27-3.52l-1.92-.37-1.9-.43-1.91-.43c-.63-.15-1.27-.28-1.9-.46l-3.76-1c-.63-.16-1.24-.36-1.86-.55l-1.86-.59-1.85-.58-1.82-.66-1.83-.66c-.6-.23-1.22-.42-1.81-.69l-3.56-1.5c-.3-.13-.6-.24-.89-.38l-.87-.42-1.74-.85-1.74-.84c-.57-.29-1.12-.61-1.69-.92-1.12-.63-2.26-1.23-3.36-1.89L115.75,311l-.82-.51-.78-.56-1.56-1.12c-2.13-1.44-4-3.15-6-4.75-1-.85-1.91-1.72-2.86-2.58s-1.84-1.79-2.73-2.71a93.81,93.81,0,0,1-17.34-25.36,123.87,123.87,0,0,1-9.34-29.61c-.23-1.28-.49-2.56-.68-3.85s-.41-2.57-.58-3.87l-.27-1.94L72.61,233l0-.39-.18-1.59-.31-3.18-.13-.8L71.65,225c-.13-.86-.25-1.87-.38-2.95s-.28-2.22-.39-3.37c0-.16,0-.32,0-.48h0a2.18,2.18,0,0,0,.61.12c2.39,0,3.43-.94,3.85-2a4.65,4.65,0,0,0,0-3.09.5.5,0,0,0-.23-.38,51.49,51.49,0,0,1-5.26-4.75c-.81-.84-1.6-1.7-2.36-2.59L67,205a59.61,59.61,0,0,1-10.85-20.21,75.65,75.65,0,0,1-2.68-11.69,91.17,91.17,0,0,1-.94-12,116.64,116.64,0,0,1,10-47.35,114.19,114.19,0,0,1,12-21.13,86.34,86.34,0,0,1,16.6-17.42c.78-.62,1.6-1.19,2.4-1.78l1.23-.84.62-.43.64-.4c.85-.53,1.69-1.07,2.56-1.59l2.62-1.5a90.67,90.67,0,0,1,11-5A93,93,0,0,1,135.74,58c1-.08,2-.21,3-.27l3-.17,3-.06c1,0,2,0,3,0a89.55,89.55,0,0,1,12,1.14A80.33,80.33,0,0,1,182.68,66,71.37,71.37,0,0,1,201.9,80.13a78.7,78.7,0,0,1,13.69,19.66,103.05,103.05,0,0,1,8,22.9c.91,4,1.63,8,2.19,12.05s.93,8.14,1.18,12.24c.06,1,.13,2.05.17,3.07l.12,3.08.05,2.87c0,.53,0,1.07,0,1.6v3.21l.13,2.92c0,.87.07,1.89.11,3s.06,2.25.08,3.4,0,2.22,0,3.25c0,2.31,0,4.26.05,5.1,0,.34,0,.5.05.42.1,3.8.35,7,.94,7.67.3.35.68.09,1.14-1a18.54,18.54,0,0,0,.77-2.33c.28-1,.57-2.26.88-3.79.07-.33.14-.68.22-1l9.43-.16a209.62,209.62,0,0,1,28.17,1.36,153.45,153.45,0,0,1,27.4,6,171.68,171.68,0,0,1,26,10.75,165.33,165.33,0,0,1,23.59,15.25c15,11.41,28.86,24.49,43.53,36.78a234.78,234.78,0,0,0,23.07,17.35c2,1.3,4.12,2.56,6.23,3.76s4.29,2.32,6.5,3.38a78.14,78.14,0,0,0,13.83,5.1,58.48,58.48,0,0,0,7.3,1.43,54.65,54.65,0,0,0,7.45.52c.62,0,1.25,0,1.87,0l.94,0,.93-.07,1.1-.07.88-.07a.26.26,0,0,0,.2-.08l.18-.12.38-.25,1.69-1.1c2-1.28,4-2.51,6-3.72,4-2.41,8.15-4.72,12.33-6.84a118.48,118.48,0,0,1,12.78-5.64c2.15-.78,4.39-1.5,6.62-2.14s4.5-1.22,6.76-1.71a67.56,67.56,0,0,1,13.63-1.68,34.07,34.07,0,0,1,6.6.53,13.69,13.69,0,0,1,5.51,2.16,4.53,4.53,0,0,1,1.45,1.73,3.54,3.54,0,0,1,.21,2.07,7.51,7.51,0,0,1-.94,2.47l-.19.32-.09.15,0,.08-.12.19-.54.73a9.15,9.15,0,0,1-.58.72c-.81,1-1.77,2-2.67,2.92l-.92,1c-.22.29-.9.75-.22.71l2.42.42,4.83.87,1.72.33L538,274c.76.18,1.51.37,2.24.57a26,26,0,0,1,4.17,1.53,11.38,11.38,0,0,1,3.26,2.24,5.63,5.63,0,0,1,1,1.38c0,.12.12.25.17.37s.08.23.13.35l.09.36c0,.12,0,.25.06.38A7.24,7.24,0,0,1,548.53,284.68Z"/></g></svg>